<svg width="292" height="114" viewBox="0 0 292 114" fill="none" xmlns="http://www.w3.org/2000/svg">
<g clip-path="url(#clip0_48_11)" filter="url(#filter0_d_48_11)">
<path d="M223.124 46.413L222.023 44.4646C218.057 37.5375 215.442 32.9772 216.78 28.8579C217.871 25.5015 221.365 23.7212 224.722 24.8118C226.618 25.4279 228.136 26.9092 228.882 28.6936C230.534 27.6882 232.633 27.3824 234.529 27.9985C237.886 29.0891 239.666 32.5832 238.575 35.9396C237.237 40.0589 232.441 42.2114 225.161 45.4844L223.124 46.413ZM217.782 10.9428L248.295 20.8571C249.451 21.2327 250.411 22.0522 250.963 23.1353C251.515 24.2184 251.614 25.4763 251.238 26.6324L241.324 57.1455C240.948 58.3016 240.129 59.2611 239.045 59.8129C237.962 60.3648 236.704 60.4638 235.548 60.0882L205.035 50.1739C203.879 49.7982 202.92 48.9787 202.368 47.8956C201.816 46.8125 201.717 45.5546 202.093 44.3985L212.007 13.8855C212.383 12.7294 213.202 11.7699 214.285 11.218C215.368 10.6661 216.626 10.5671 217.782 10.9428ZM216.366 15.3018L206.452 45.8148L236.965 55.7291L246.879 25.2161L216.366 15.3018Z" fill="white"/>
</g>
<g filter="url(#filter1_d_48_11)">
<path d="M109.223 41.96C96.9727 41.96 89.2727 49.03 89.2727 58.48C89.2727 67.93 96.9727 75 109.223 75C121.473 75 129.173 67.93 129.173 58.48C129.173 49.03 121.473 41.96 109.223 41.96ZM138.343 79.06H80.1027V86.06H104.673V105.8H114.473V86.06H138.343V79.06ZM109.223 68C102.713 68 98.5127 64.15 98.5127 58.48C98.5127 52.81 102.713 48.96 109.223 48.96C115.733 48.96 119.933 52.81 119.933 58.48C119.933 64.15 115.733 68 109.223 68ZM187.09 47H157.27V81.44C157.27 85.64 160.07 88.44 164.27 88.44H178.62C185.06 88.44 192.13 87.53 195.77 86.2V105.8H205.01V69.82H213.55V62.4H205.01V43.08H195.77V79.48C191.85 80.46 184.64 81.3 179.74 81.3H168.61C167.21 81.3 166.51 80.39 166.51 79.2V54H187.09V47Z" fill="white"/>
</g>
<defs>
<filter id="filter0_d_48_11" x="188.013" y="0.863434" width="77.3041" height="78.304" filterUnits="userSpaceOnUse" color-interpolation-filters="sRGB">
<feFlood flood-opacity="0" result="BackgroundImageFix"/>
<feColorMatrix in="SourceAlpha" type="matrix" values="0 0 0 0 0 0 0 0 0 0 0 0 0 0 0 0 0 0 127 0" result="hardAlpha"/>
<feOffset dy="5"/>
<feGaussianBlur stdDeviation="2"/>
<feComposite in2="hardAlpha" operator="out"/>
<feColorMatrix type="matrix" values="0 0 0 0 0 0 0 0 0 0 0 0 0 0 0 0 0 0 0.25 0"/>
<feBlend mode="normal" in2="BackgroundImageFix" result="effect1_dropShadow_48_11"/>
<feBlend mode="normal" in="SourceGraphic" in2="effect1_dropShadow_48_11" result="shape"/>
</filter>
<filter id="filter1_d_48_11" x="76.1027" y="41.96" width="141.447" height="71.84" filterUnits="userSpaceOnUse" color-interpolation-filters="sRGB">
<feFlood flood-opacity="0" result="BackgroundImageFix"/>
<feColorMatrix in="SourceAlpha" type="matrix" values="0 0 0 0 0 0 0 0 0 0 0 0 0 0 0 0 0 0 127 0" result="hardAlpha"/>
<feOffset dy="4"/>
<feGaussianBlur stdDeviation="2"/>
<feComposite in2="hardAlpha" operator="out"/>
<feColorMatrix type="matrix" values="0 0 0 0 0 0 0 0 0 0 0 0 0 0 0 0 0 0 0.2 0"/>
<feBlend mode="normal" in2="BackgroundImageFix" result="effect1_dropShadow_48_11"/>
<feBlend mode="normal" in="SourceGraphic" in2="effect1_dropShadow_48_11" result="shape"/>
</filter>
<clipPath id="clip0_48_11">
<rect width="55" height="55" fill="white" transform="translate(209.009 0.863434) rotate(18)"/>
</clipPath>
</defs>
</svg>
